<svg xmlns="http://www.w3.org/2000/svg" width="512" height="512" viewBox="0 0 100 100">
  <defs>
    <linearGradient id="bgGrad" x1="0%" y1="0%" x2="100%" y2="100%">
      <stop offset="0%" style="stop-color:#1e3a5f;stop-opacity:1" />
      <stop offset="100%" style="stop-color:#2563eb;stop-opacity:1" />
    </linearGradient>
  </defs>
  <rect width="100" height="100" fill="url(#bgGrad)" rx="22"/>
  <!-- Calculator outline -->
  <rect x="25" y="20" width="50" height="60" rx="5" fill="white" stroke="none"/>
  <!-- Screen -->
  <rect x="30" y="28" width="40" height="15" rx="2" fill="#1e3a5f"/>
  <!-- Calculator buttons -->
  <rect x="30" y="48" width="8" height="8" rx="1" fill="#1e3a5f"/>
  <rect x="42" y="48" width="8" height="8" rx="1" fill="#1e3a5f"/>
  <rect x="54" y="48" width="8" height="8" rx="1" fill="#1e3a5f"/>
  <rect x="66" y="48" width="8" height="8" rx="1" fill="#2563eb"/>
  
  <rect x="30" y="60" width="8" height="8" rx="1" fill="#1e3a5f"/>
  <rect x="42" y="60" width="8" height="8" rx="1" fill="#1e3a5f"/>
  <rect x="54" y="60" width="8" height="8" rx="1" fill="#1e3a5f"/>
  <rect x="66" y="60" width="8" height="8" rx="1" fill="#2563eb"/>
  
  <rect x="30" y="72" width="18" height="8" rx="1" fill="#22c55e"/>
  <rect x="54" y="72" width="8" height="8" rx="1" fill="#1e3a5f"/>
  <rect x="66" y="72" width="8" height="8" rx="1" fill="#2563eb"/>
</svg>